<svg xmlns="http://www.w3.org/2000/svg" class="css-1j8o68f" viewBox="-46.77 -56.72 192.04 195.17">   <defs id="SvgjsDefs1459"/>   <g id="SvgjsG1460" featurekey="symbolFeature-0" transform="matrix(0.11437356472015381,0,0,0.11437356472015381,-134.7694660964306,-10.400032189306188)" fill="#111111">     <g xmlns="http://www.w3.org/2000/svg" id="SvgjsG1208" transform="matrix(1.2270887966253619,0,0,1.2270887966253619,262.6059564668209,-12.974053089541847)">       <g>         <g>           <path class="st0" d="M826.5,352.2l28.1,28.1h14.1l7,7v14l-7,7v28.1l7,7v14.1l35.1,35.1v70.3l14.1,14.1v28.1l14.1,14.1h14v-14.1     l-7-7V584l21.1-21.1v-14.1l28.1-28.1l0-14l28.1-28.1v-14l14-14.1v-14l-14.1-14.1h-14.1l-14.1-14.1h-14L953,380.3h-14l-14.1-14.1     h-28.1l-7,7h-14l-35.1-35.1h-14l-11.7-11.6c-1.7,7.9-3,16-4,24.2l1.5,1.6L826.5,352.2L826.5,352.2z" style="fill: #111111;"/>           <path class="st0" d="M953,141.4l28.1,28.1l14-14.1v-14.1l-14-14l6.7-6.7c-22.3,9-43.3,20.7-62.4,34.8H939L953,141.4z" style="fill: #111111;"/>           <path class="st0" d="M868.7,296l56.2-56.2H939l28.1-28.1h14.1l14-14.1l-14-14H967v-14H953l-35.1,35.1l-23.1-23.1     c-33.5,32.8-59.1,73.7-73.3,119.6l5.1-5.1L868.7,296L868.7,296z" style="fill: #111111;"/>           <path class="st0" d="M1016.2,120.3h14.1l7,7v14l-14.1,14.1l14.1,14.1h14l14.1-14.1h14l14-14.1h14.1l35.1-35.1l-2.4-2.4     c-15.1-2.5-30.5-3.8-46.3-3.8c-29.3,0-57.6,4.5-84.3,12.7l-0.5,0.5L1016.2,120.3z" style="fill: #111111;"/>           <polygon class="st0" points="1332.4,506.7 1332.4,492.7 1346.4,478.6 1346.4,464.6 1339.4,457.5 1318.4,478.6 1318.4,506.7      1325.4,513.8    " style="fill: #111111;"/>           <polygon class="st0" points="1135.6,211.6 1149.6,211.6 1163.7,197.6 1163.7,183.5 1149.6,183.5 1135.6,197.6    " style="fill: #111111;"/>           <path class="st0" d="M1184.9,176.5l7,7l0,14l-14.1,14.1h-14l-7,7l7,7v14h-28.1l-7,7v14l7.1,7h14.1l28.1-28.1h14.1l7-7l14,14.1     l7-7l14,14.1h14l14,14h28.1v14.1l-7,7h-28.1l-7-7h-14l-7,7l-7-7h-14.1l-14-14.1h-28.1l-7,7h-14.1l-35.1,35.1v56.2l28.1,28.1h28.1     l7-7h14l7,7v28.1l21,21.1v14.1l-7,7v28.1l7,7v14.1l7,7v14l14,14h14l28.1-28.1v-14l35.1-35.1v-14.1l-7-7v-28.1l42.2-42.2v-14.1     h-28.1l-14.1-14.1v-14.1l-21.1-21.1l0-14.1l7-7v14l28.1,28.1v14.1l7,7l7-7h14l26.5-26.5c-0.3-1.4-0.6-2.8-1-4.2l-11.5-11.5h-14.1     l-14-14l7-7l14,14h13.6c-20.5-68-65.8-125.4-125.3-161.6H1220L1184.9,176.5z" style="fill: #111111;"/>         </g>         <path class="st0" d="M1243.8,522.2c2.2,2.2,4.3,4.3,6.5,6.5c-3.9,3.2-5.6,7.6-5.1,13.2c-3.5-3.5-7-7-10.5-10.5" style="fill: #111111;"/>         <path class="st0" d="M1243.8,522.2c-2.2-2.2-4.3-4.3-6.5-6.5c-3.2,3.9-7.6,5.6-13.2,5.1c3.5,3.5,7,7,10.5,10.5" style="fill: #111111;"/>         <path class="st0" d="M1305.6,510.5c-16.4-16.4-32.8-32.8-49.2-49.3c-0.5-0.5-0.9-0.3-1.4,0.1c-11,11-22,22-33,33    c-0.3,0.3-0.4,0.5-0.4,0.8c-0.1,0.2,0,0.5,0.3,0.7c16.4,16.4,32.8,32.8,49.2,49.3c0.5,0.5,0.9,0.4,1.4-0.1c11-11,22-22,33-33    c0.3-0.3,0.4-0.5,0.4-0.8C1306,511,1305.9,510.7,1305.6,510.5z" style="fill: #111111;"/>         <rect x="1246.6" y="468.4" transform="matrix(0.7071 -0.7071 0.7071 0.7071 15.9646 1041.6595)" class="st0" width="37.5" height="66.2" style="fill: #111111;"/>         <path class="st1" d="M1243.8,522.2c-2.2-2.2-4.3-4.3-6.5-6.5c-3.2,3.9-7.6,5.6-13.2,5.1c3.5,3.5,7,7,10.5,10.5" style="fill: #111111; stroke: #111111; stroke-width: 9.9378; stroke-miterlimit: 99.3777;"/>         <path class="st1" d="M1243.8,522.2c2.2,2.2,4.3,4.3,6.5,6.5c-3.9,3.2-5.6,7.6-5.1,13.2c-3.5-3.5-7-7-10.5-10.5" style="fill: #111111; stroke: #111111; stroke-width: 9.9378; stroke-miterlimit: 99.3777;"/>         <path class="st0" d="M914.7,233.7c2.2,2.2,4.3,4.3,6.5,6.5c-3.9,3.2-5.6,7.6-5.1,13.2c-3.5-3.5-7-7-10.5-10.5" style="fill: #111111;"/>         <path class="st0" d="M914.7,233.7c-2.2-2.2-4.3-4.3-6.5-6.5c-3.2,3.9-7.6,5.6-13.2,5.1c3.5,3.5,7,7,10.5,10.5" style="fill: #111111;"/>         <path class="st0" d="M976.6,221.9c-16.4-16.4-32.8-32.8-49.3-49.3c-0.5-0.5-0.9-0.4-1.4,0.1c-11,11-22,22-33,33    c-0.3,0.3-0.4,0.5-0.4,0.8c0,0.2,0,0.5,0.3,0.7c16.4,16.4,32.8,32.8,49.3,49.3c0.5,0.5,0.9,0.4,1.4-0.1c11-11,22-22,33-33    c0.3-0.3,0.4-0.5,0.4-0.8C977,222.5,976.9,222.2,976.6,221.9z" style="fill: #111111;"/>         <rect x="917.6" y="179.9" transform="matrix(0.7072 -0.707 0.707 0.7072 123.5253 724.3744)" class="st0" width="37.5" height="66.2" style="fill: #111111;"/>         <path class="st0" d="M914.7,233.7c-2.2-2.2-4.3-4.3-6.5-6.5c-3.2,3.9-7.6,5.6-13.2,5.1c3.5,3.5,7,7,10.5,10.5" style="fill: #111111;"/>         <path class="st0" d="M914.7,233.7c2.2,2.2,4.3,4.3,6.5,6.5c-3.9,3.2-5.6,7.6-5.1,13.2c-3.5-3.5-7-7-10.5-10.5" style="fill: #111111;"/>         <path class="st0" d="M898.9,366.2c0,3.1,0,6.1,0,9.2c-5-0.5-9.3,1.4-12.9,5.7c0-5,0-9.9,0-14.9" style="fill: #111111;"/>         <path class="st0" d="M898.9,366.2c0-3,0-6.1,0-9.2c-5,0.5-9.3-1.4-12.9-5.7c0,4.9,0,9.9,0,14.8" style="fill: #111111;"/>         <path class="st0" d="M949.9,331.1c-15.6,0-31.1,0-46.7,0c-0.7,0-1.1,0.2-1.1,0.9c0,0,0,0.1,0,0.1c0,23.2,0,46.4,0,69.5    c0,0,0,0.1,0,0.1c0,0.7,0.4,0.9,1.1,0.9c15.6,0,31.1,0,46.7,0c0.7,0,1.1-0.2,1.1-0.9c0,0,0-0.1,0-0.1c0-23.2,0-46.4,0-69.5    c0,0,0-0.1,0-0.1C950.9,331.3,950.5,331.1,949.9,331.1z" style="fill: #111111;"/>         <rect x="910.1" y="333.8" class="st0" width="37.5" height="66.2" style="fill: #111111;"/>         <path class="st0" d="M898.9,366.2c0-3,0-6.1,0-9.2c-5,0.5-9.3-1.4-12.9-5.7c0,4.9,0,9.9,0,14.8" style="fill: #111111;"/>         <path class="st0" d="M898.9,366.2c0,3.1,0,6.1,0,9.2c-5-0.5-9.3,1.4-12.9,5.7c0-5,0-9.9,0-14.9" style="fill: #111111;"/>         <path class="st0" d="M1091.1,155.4c-3.1,0-6.1,0-9.2,0c0.5-5-1.4-9.4-5.7-12.9c4.9,0,9.9,0,14.9,0" style="fill: #111111;"/>         <path class="st0" d="M1091.1,155.4c3.1,0,6.1,0,9.2,0c-0.5-5,1.4-9.4,5.7-12.9c-4.9,0-9.9,0-14.9,0" style="fill: #111111;"/>         <path class="st0" d="M1125.3,158.6c-23.2,0-46.4,0-69.6,0c-0.7,0-0.9,0.4-0.9,1.1c0,15.6,0,31.1,0,46.7c0,0.7,0.2,1.1,0.9,1.1    c23.2,0,46.4,0,69.6,0c0.7,0,0.9-0.4,0.9-1.1c0-15.6,0-31.1,0-46.7C1126.2,159,1126,158.6,1125.3,158.6z M1123.6,204.1h-66.2    v-37.5h66.2V204.1z" style="fill: #111111;"/>         <path class="st0" d="M1091.1,155.4c3.1,0,6.1,0,9.2,0c-0.5-5,1.4-9.4,5.7-12.9c-4.9,0-9.9,0-14.9,0" style="fill: #111111;"/>         <path class="st0" d="M1091.1,155.4c-3.1,0-6.1,0-9.2,0c0.5-5-1.4-9.4-5.7-12.9c4.9,0,9.9,0,14.9,0" style="fill: #111111;"/>         <path class="st0" d="M957.2,527.4c-3.1,0-6.1,0-9.2,0c0.5-5-1.4-9.3-5.7-12.9c4.9,0,9.9,0,14.9,0" style="fill: #111111;"/>         <path class="st0" d="M957.2,527.4c3,0,6.1,0,9.2,0c-0.5-5,1.4-9.3,5.7-12.9c-5,0-9.9,0-14.9,0" style="fill: #111111;"/>         <path class="st0" d="M991.4,530.5c-23.2,0-46.4,0-69.6,0c-0.7,0-0.9,0.4-0.9,1.1c0,15.6,0,31.1,0,46.7c0,0.7,0.2,1.1,0.9,1.1    c23.2,0,46.4,0,69.6,0c0.7,0,0.9-0.4,0.9-1.1c0-15.6,0-31.1,0-46.7C992.3,530.9,992.1,530.5,991.4,530.5z" style="fill: #111111;"/>         <rect x="923.4" y="538.5" class="st0" width="66.2" height="37.5" style="fill: #111111;"/>         <path class="st1" d="M957.2,527.4c3,0,6.1,0,9.2,0c-0.5-5,1.4-9.3,5.7-12.9c-5,0-9.9,0-14.9,0" style="fill: #111111; stroke: #111111; stroke-width: 9.9378; stroke-miterlimit: 99.3777;"/>         <path class="st1" d="M957.2,527.4c-3.1,0-6.1,0-9.2,0c0.5-5-1.4-9.3-5.7-12.9c4.9,0,9.9,0,14.9,0" style="fill: #111111; stroke: #111111; stroke-width: 9.9378; stroke-miterlimit: 99.3777;"/>         <path class="st0" d="M1232.4,229.5c-2.2-2.2-4.3-4.3-6.5-6.5c3.9-3.2,5.6-7.6,5.1-13.2c3.5,3.5,7,7,10.5,10.5" style="fill: #111111;"/>         <path class="st0" d="M1232.4,229.5c2.2,2.2,4.3,4.3,6.5,6.5c3.2-3.9,7.6-5.6,13.2-5.1c-3.5-3.5-7-7-10.5-10.5" style="fill: #111111;"/>         <path class="st0" d="M1254.4,255.7c-16.4-16.4-32.8-32.8-49.3-49.2c-0.5-0.5-0.9-0.4-1.4,0.1c-11,11-22,22-33,33    c-0.3,0.3-0.4,0.5-0.4,0.8c0,0.2,0,0.5,0.3,0.8c16.4,16.4,32.8,32.8,49.3,49.3c0.5,0.5,0.9,0.4,1.4-0.1c11-11,22-22,33-33    c0.3-0.3,0.4-0.5,0.4-0.8C1254.7,256.2,1254.6,256,1254.4,255.7z" style="fill: #111111;"/>         <rect x="1192.1" y="217" transform="matrix(0.707 -0.7072 0.7072 0.707 177.8853 929.6)" class="st0" width="37.5" height="66.2" style="fill: #111111;"/>         <path class="st1" d="M1232.4,229.5c2.2,2.2,4.3,4.3,6.5,6.5c3.2-3.9,7.6-5.6,13.2-5.1c-3.5-3.5-7-7-10.5-10.5" style="fill: #111111; stroke: #111111; stroke-width: 9.9378; stroke-miterlimit: 99.3777;"/>         <path class="st1" d="M1232.4,229.5c-2.2-2.2-4.3-4.3-6.5-6.5c3.9-3.2,5.6-7.6,5.1-13.2c3.5,3.5,7,7,10.5,10.5" style="fill: #111111; stroke: #111111; stroke-width: 9.9378; stroke-miterlimit: 99.3777;"/>         <path class="st0" d="M1315.8,366.3c1.3-2.8,2.6-5.5,4-8.3c4.3,2.7,9,2.8,14.1,0.5c-2.1,4.5-4.3,8.9-6.4,13.4" style="fill: #111111;"/>         <path class="st0" d="M1315.8,366.3c-1.3,2.7-2.6,5.5-4,8.3c4.8,1.7,7.8,5.3,9.2,10.7c2.1-4.5,4.3-8.9,6.4-13.4" style="fill: #111111;"/>         <path class="st0" d="M1321.3,329.3c-14-6.7-28.1-13.5-42.1-20.2c-0.6-0.3-1-0.3-1.4,0.4c0,0,0,0.1,0,0.1    c-10,20.9-20.1,41.8-30.1,62.7c0,0,0,0.1,0,0.1c-0.3,0.7,0,1,0.6,1.3c14,6.7,28.1,13.5,42.1,20.2c0.6,0.3,1,0.3,1.4-0.3    c0,0,0-0.1,0-0.1c10-20.9,20.1-41.8,30.1-62.7c0,0,0-0.1,0-0.1C1322.2,329.9,1321.9,329.6,1321.3,329.3z" style="fill: #111111;"/>         <rect x="1249.5" y="331.7" transform="matrix(0.433 -0.9014 0.9014 0.433 411.3308 1354.8436)" class="st0" width="66.2" height="37.5" style="fill: #111111;"/>         <path class="st2" d="M1315.8,366.3c-1.3,2.7-2.6,5.5-4,8.3c4.8,1.7,7.8,5.3,9.2,10.7c2.1-4.5,4.3-8.9,6.4-13.4" style="fill: #111111; stroke: #111111; stroke-width: 7.4533; stroke-miterlimit: 99.3777;"/>         <path class="st3" d="M1315.8,366.3c1.3-2.8,2.6-5.5,4-8.3c4.3,2.7,9,2.8,14.1,0.5c-2.1,4.5-4.3,8.9-6.4,13.4" style="fill: #111111; stroke: #111111; stroke-width: 4.9689; stroke-miterlimit: 99.3777;"/>         <path class="st0" d="M1092.1,494c2.2-2.2,4.3-4.3,6.5-6.5c3.2,3.9,7.6,5.6,13.2,5.1c-3.5,3.5-7,7-10.5,10.5" style="fill: #111111;"/>         <path class="st0" d="M1092.1,494c-2.2,2.2-4.3,4.3-6.5,6.5c3.9,3.2,5.6,7.6,5.1,13.2c3.5-3.5,7-7,10.5-10.5" style="fill: #111111;"/>         <path class="st0" d="M1114.9,465.3c-11-11-22-22-33-33c-0.5-0.5-0.9-0.6-1.4-0.1c-16.4,16.4-32.8,32.8-49.2,49.3    c-0.5,0.5-0.4,0.9,0.1,1.4c11,11,22,22,33,33c0.5,0.5,0.9,0.6,1.4,0.1c16.4-16.4,32.8-32.8,49.3-49.3    C1115.5,466.2,1115.3,465.8,1114.9,465.3z M1061.2,509.1l-26.5-26.5l46.8-46.8l26.5,26.5L1061.2,509.1z" style="fill: #111111;"/>         <path class="st0" d="M1092.1,494c-2.2,2.2-4.3,4.3-6.5,6.5c3.9,3.2,5.6,7.6,5.1,13.2c3.5-3.5,7-7,10.5-10.5" style="fill: #111111;"/>         <path class="st0" d="M1092.1,494c2.2-2.2,4.3-4.3,6.5-6.5c3.2,3.9,7.6,5.6,13.2,5.1c-3.5,3.5-7,7-10.5,10.5" style="fill: #111111;"/>         <path class="st0" d="M1162,623.6c3.1,0,6.1,0,9.2,0c-0.5,5,1.4,9.3,5.7,12.9c-4.9,0-9.9,0-14.8,0" style="fill: #111111;"/>         <path class="st0" d="M1162,623.6c-3.1,0-6.1,0-9.2,0c0.5,5-1.4,9.3-5.7,12.9c4.9,0,9.9,0,14.8,0" style="fill: #111111;"/>         <path class="st0" d="M1197.5,571.5c-23.2,0-46.4,0-69.7,0c-0.7,0-0.9,0.4-0.9,1.1c0,0,0,0.1,0,0.1c0,15.5,0,31.1,0,46.6    c0,0,0,0.1,0,0.1c0,0.7,0.2,1.1,0.9,1.1c23.2,0,46.4,0,69.7,0c0.7,0,0.9-0.4,0.9-1.1c0,0,0-0.1,0-0.1c0-15.5,0-31.1,0-46.6    c0,0,0-0.1,0-0.1C1198.4,571.9,1198.3,571.5,1197.5,571.5z M1195.8,612.5h-66.2V575h66.2V612.5z" style="fill: #111111;"/>         <path class="st0" d="M1162,623.6c-3.1,0-6.1,0-9.2,0c0.5,5-1.4,9.3-5.7,12.9c4.9,0,9.9,0,14.8,0" style="fill: #111111;"/>         <path class="st0" d="M1162,623.6c3.1,0,6.1,0,9.2,0c-0.5,5,1.4,9.3,5.7,12.9c-4.9,0-9.9,0-14.8,0" style="fill: #111111;"/>         <path class="st0" d="M1148.5,307.9c-38.7,0-77.4,0-116.1,0c-1.2,0-1.5,0.7-1.5,1.8c0,26,0,51.9,0,77.9c0,1.1,0.3,1.8,1.5,1.8    c38.7,0,77.4,0,116.1,0c1.2,0,1.5-0.7,1.5-1.8c0-26,0-51.9,0-77.9C1150,308.6,1149.7,307.9,1148.5,307.9z" style="fill: #111111;"/>         <rect x="1035.2" y="313.5" class="st0" width="110.5" height="62.5" style="fill: #111111;"/>         <path class="st0" d="M1089.3,394.6c-5.1,0-10.2,0-15.3,0c0.9,8.4-2.3,15.6-9.5,21.5c8.3,0,16.5,0,24.8,0" style="fill: #111111;"/>         <path class="st0" d="M1089.3,394.6c5.1,0,10.2,0,15.3,0c-0.9,8.4,2.3,15.6,9.5,21.5c-8.3,0-16.5,0-24.8,0" style="fill: #111111;"/>         <path class="st0" d="M1089.3,394.6c5.1,0,10.2,0,15.3,0c-0.9,8.4,2.3,15.6,9.5,21.5c-8.3,0-16.5,0-24.8,0" style="fill: #111111;"/>         <path class="st0" d="M1089.3,394.6c-5.1,0-10.2,0-15.3,0c0.9,8.4-2.3,15.6-9.5,21.5c8.3,0,16.5,0,24.8,0" style="fill: #111111;"/>         <path class="st4" d="M1339.4,288.9l-7,7l14,14h14.1l11.5,11.5c-1.4-6.3-3-12.4-4.9-18.5h-13.6L1339.4,288.9z" style="fill: none;"/>         <path class="st4" d="M1142.7,106.2l-35.1,35.1h-14.1l-14,14.1h-14l-14.1,14.1h-14l-14.1-14.1l14.1-14.1v-14l-7-7h-14.1l-7-7    l0.5-0.5c-7.5,2.3-14.7,5-21.9,7.9l-6.7,6.7l14,14v14.1l-14,14.1L953,141.4l-14,14.1h-13.6c-0.5,0.4-1.1,0.7-1.6,1.1l-5.9,5.9    h-1.6c-7.5,6-14.7,12.3-21.5,19l23.1,23.1l35.1-35.1H967v14h14.1l14,14l-14,14.1H967l-28.1,28.1h-14.1L868.7,296h-42.1l-5.1,5.1    c-2.6,8.3-4.8,16.8-6.6,25.4l11.7,11.6h14l35.1,35.1h14l7-7h28.1l14.1,14.1h14l28.1,28.1h14l14.1,14.1h14.1l14.1,14.1v14l-14,14.1    v14l-28.1,28.1l0,14L967,548.9v14.1L946,584V598l7,7v14.1h-14l-14.1-14.1V577l-14.1-14.1v-70.3l-35.1-35.1v-14.1l-7-7v-28.1l7-7    v-14l-7-7h-14.1l-28.1-28.1h-14.1l-1.5-1.6c-1.4,11.4-2.2,23-2.2,34.7c0,157.3,128,285.3,285.3,285.3    c157.3,0,285.3-128,285.3-285.3c0-20.5-2.2-40.4-6.3-59.7l-26.5,26.5h-14l-7,7l-7-7v-14.1l-28.1-28.1v-14l-7,7l0,14.1l21.1,21.1    v14.1l14.1,14.1h28.1v14.1l-42.2,42.2v28.1l7,7v14.1l-35.1,35.1v14l-28.1,28.1h-14l-14-14v-14l-7-7v-14.1l-7-7v-28.1l7-7v-14.1    l-21-21.1v-28.1l-7-7h-14l-7,7h-28.1l-28.1-28.1V310l35.1-35.1h14.1l7-7h28.1l14,14.1h14.1l7,7l7-7h14l7,7h28.1l7-7v-14.1h-28.1    l-14-14h-14l-14-14.1l-7,7l-14-14.1l-7,7h-14.1l-28.1,28.1h-14.1l-7.1-7v-14l7-7h28.1v-14l-7-7l7-7h14l14.1-14.1l0-14l-7-7    l35.1-35.1h21.8c-30.5-18.6-64.9-31.5-101.5-37.5L1142.7,106.2z M1318.4,478.6l21.1-21.1l7,7v14l-14,14.1v14.1l-7,7l-7-7    L1318.4,478.6L1318.4,478.6z M1163.7,183.5v14l-14.1,14.1h-14.1v-14.1l14.1-14H1163.7z" style="fill: none;"/>         <path class="st0" d="M923.7,156.6c-2.6,1.9-5,3.9-7.5,5.9h1.6L923.7,156.6z" style="fill: #111111;"/>         <path class="st0" d="M1023.3,99.2l-0.5,0.5c0.7-0.2,1.5-0.3,2.2-0.5H1023.3z" style="fill: #111111;"/>         <path class="st0" d="M903.8,162.4l-14,14.1l5,5c6.8-6.7,14-13,21.5-19L903.8,162.4L903.8,162.4z" style="fill: #111111;"/>         <path class="st0" d="M812.5,310v14.1l2.4,2.4c1.8-8.6,4-17.1,6.6-25.4L812.5,310z" style="fill: #111111;"/>         <path class="st0" d="M1367.5,303h-0.4c1.8,6.1,3.4,12.3,4.9,18.5l2.6,2.6l-1.6,1.6c4.1,19.3,6.3,39.2,6.3,59.7    c0,157.3-128,285.3-285.3,285.3c-157.3,0-285.3-128-285.3-285.3c0-11.8,0.8-23.3,2.2-34.7l-8.1-8.1c-2,14-3.2,28.3-3.2,42.8    c0,162.3,132,294.4,294.4,294.4s294.4-132,294.4-294.4c0-26-3.4-51.3-9.8-75.3h-4L1367.5,303z" style="fill: #111111;"/>         <path class="st0" d="M1009.7,112.8l13-13c-6.7,1.7-13.3,3.6-19.7,5.7l-15.2,15.2C995,117.7,1002.3,115.1,1009.7,112.8z" style="fill: #111111;"/>         <path class="st0" d="M924.9,155.4l-1.1,1.1c0.5-0.4,1.1-0.8,1.6-1.1H924.9z" style="fill: #111111;"/>         <path class="st0" d="M1140.3,103.9c36.6,6,70.9,18.9,101.5,37.5h16.8c-47-31.8-103.7-50.4-164.6-50.4c-23.8,0-46.9,2.9-69,8.3    h110.7L1140.3,103.9z" style="fill: #111111;"/>         <path class="st0" d="M814.9,326.5l-2.4-2.4V310l9-9c14.2-45.9,39.7-86.8,73.3-119.6l-5-5l14-14.1h12.4c2.5-2,5-4,7.5-5.9l1.1-1.1    h0.5c19.1-14.1,40.1-25.8,62.4-34.8l15.2-15.2c-104.8,34.1-183.9,125.5-200.2,237l8.1,8.1C811.9,342.5,813.2,334.4,814.9,326.5z" style="fill: #111111;"/>         <path class="st0" d="M1094,100c15.8,0,31.2,1.3,46.3,3.8l-4.6-4.6H1025c-0.7,0.2-1.5,0.3-2.2,0.5l-13,13    C1036.4,104.5,1064.7,100,1094,100z" style="fill: #111111;"/>         <path class="st0" d="M1374.6,324.1l-2.6-2.6c0.3,1.4,0.7,2.8,1,4.2L1374.6,324.1z" style="fill: #111111;"/>         <path class="st3" d="M972.3,226.6c0,0,81.2-38.4,77.4,80.9" style="fill: #111111; stroke: #111111; stroke-width: 4.9689; stroke-miterlimit: 99.3777;"/>         <path class="st3" d="M910.1,333.8c0,0-9.5-52.6,31.9-85.7" style="fill: #111111; stroke: #111111; stroke-width: 4.9689; stroke-miterlimit: 99.3777;"/>         <path class="st5" d="M1064.6,448c-23.7-66.9-113.6-99.4-113.6-99.4s24.8-46.6,79.9-23.3" style="fill: none; stroke: #111111; stroke-width: 4.9689; stroke-miterlimit: 99.3777;"/>         <path class="st5" d="M1061,206.2c0,0,29.8,12.5,12.8,105" style="fill: none; stroke: #111111; stroke-width: 4.9689; stroke-miterlimit: 99.3777;"/>         <path class="st5" d="M986.1,534.8c0,0,43.2-34,83.2-22.4" style="fill: none; stroke: #111111; stroke-width: 4.9689; stroke-miterlimit: 99.3777;"/>         <path class="st5" d="M979.8,576c0,0,50.2,96.1,147.1,39.9" style="fill: none; stroke: #111111; stroke-width: 4.9689; stroke-miterlimit: 99.3777;"/>         <path class="st5" d="M1107.6,468.9c0,0,95.9-12.2,85.7,102.6" style="fill: none; stroke: #111111; stroke-width: 4.9689; stroke-miterlimit: 99.3777;"/>         <path class="st5" d="M1194,619.2c0,0,82.8-34.8,71.4-80.6" style="fill: none; stroke: #111111; stroke-width: 4.9689; stroke-miterlimit: 99.3777;"/>         <path class="st3" d="M1257,466.7c0,0,44.6-34.3,29.8-85.1" style="fill: #111111; stroke: #111111; stroke-width: 4.9689; stroke-miterlimit: 99.3777;"/>         <path class="st3" d="M1129.9,355.4c0,0,63.1-81,138.9,0" style="fill: #111111; stroke: #111111; stroke-width: 4.9689; stroke-miterlimit: 99.3777;"/>         <path class="st3" d="M1140.5,320.1c0,0,91.6-5.3,71.6-54.8" style="fill: #111111; stroke: #111111; stroke-width: 4.9689; stroke-miterlimit: 99.3777;"/>         <path class="st3" d="M934.7,541.9c0,0-41.8-97.9-11.3-147.9" style="fill: #111111; stroke: #111111; stroke-width: 4.9689; stroke-miterlimit: 99.3777;"/>         <path class="st3" d="M1140.3,358.8c0,0,125.4,29.3,103.4,126.8" style="fill: #111111; stroke: #111111; stroke-width: 4.9689; stroke-miterlimit: 99.3777;"/>         <path class="st5" d="M973,220.7c0,0,43.7-41.5,84.3-25.6" style="fill: none; stroke: #111111; stroke-width: 4.9689; stroke-miterlimit: 99.3777;"/>         <path class="st5" d="M928.8,176.4c0,0-167.2-52-93,80.5" style="fill: none; stroke: #111111; stroke-width: 4.9689; stroke-miterlimit: 99.3777;"/>         <path class="st5" d="M1135.6,619.2c0,0-59.8,151.9-130.3,37.3" style="fill: none; stroke: #111111; stroke-width: 4.9689; stroke-miterlimit: 99.3777;"/>         <path class="st5" d="M1119.7,159.5c0,0,122.6-158.3,137.4-14.4" style="fill: none; stroke: #111111; stroke-width: 4.9689; stroke-miterlimit: 99.3777;"/>         <path class="st5" d="M1272.5,545c0,0,133.6,42.2,91.8-68.3" style="fill: none; stroke: #111111; stroke-width: 4.9689; stroke-miterlimit: 99.3777;"/>         <path class="st5" d="M904.9,355.4c0,0-273.7-154.5-102.1,20.4" style="fill: none; stroke: #111111; stroke-width: 4.9689; stroke-miterlimit: 99.3777;"/>         <path class="st5" d="M924.9,577c0,0-95.3,122.8-73.9-35.1" style="fill: none; stroke: #111111; stroke-width: 4.9689; stroke-miterlimit: 99.3777;"/>         <path class="st5" d="M1333.8,358.5c0,0,117.2-21.4,45.5,73.3" style="fill: none; stroke: #111111; stroke-width: 4.9689; stroke-miterlimit: 99.3777;"/>         <path class="st4" d="M1366.2,189c-11.6-9.6-32.2-6.8-53.1,0.1c20.9,23.3,38.2,50,50.8,79.1C1378.9,226.9,1379.7,200.2,1366.2,189z    " style="fill: none;"/>         <path class="st0" d="M1365.3,271.2c-1.4,3.7-2.8,7.4-4.3,11.3l-1.1-0.5c2.7,6.9,5.2,13.8,7.3,21h0.4l7,7h4    C1375,296.7,1370.6,283.7,1365.3,271.2z" style="fill: #111111;"/>         <path class="st0" d="M1313.1,189.1c-3.1,1-6.2,2.1-9.2,3.3c23.5,25.5,42.4,55.4,55.3,88.1c1.7-4.3,3.3-8.4,4.7-12.3    C1351.3,239.1,1334,212.4,1313.1,189.1z" style="fill: #111111;"/>         <path class="st0" d="M1258.6,141.4h-16.8c22.3,13.6,42.6,30.1,60.4,49.1c3-1.2,6.1-2.3,9.2-3.3    C1295.7,169.9,1278,154.5,1258.6,141.4z" style="fill: #111111;"/>         <path class="st0" d="M1358.8,281.6l1,0.4c-0.2-0.5-0.4-1-0.6-1.5C1359.1,280.9,1359,281.2,1358.8,281.6z" style="fill: #111111;"/>         <path class="st0" d="M1366.2,189c13.5,11.2,12.7,37.9-2.2,79.2c0.4,1,0.9,2,1.3,3c16.1-43.6,16.9-71.9,2.3-84    c-12.6-10.4-34.5-7.4-56.2-0.1c0.6,0.6,1.2,1.3,1.7,1.9C1333.9,182.1,1354.6,179.3,1366.2,189z" style="fill: #111111;"/>         <path class="st0" d="M1311.4,187.1c-3.1,1-6.2,2.2-9.2,3.3c-28,10.9-53.4,27-55.3,28.2l1.2,1.9c0.5-0.3,27-17.1,55.8-28.2    c3.1-1.2,6.1-2.3,9.2-3.3C1312.5,188.4,1312,187.8,1311.4,187.1z" style="fill: #111111;"/>         <path class="st0" d="M1365.3,271.2c-0.4-1-0.9-2-1.3-3c-1.4,4-3,8.1-4.7,12.3c0.2,0.5,0.4,1,0.6,1.5l1.1,0.5    C1362.5,278.6,1363.9,274.8,1365.3,271.2z" style="fill: #111111;"/>       </g>     </g>   </g> </svg>